<svg width="11" height="11" viewBox="0 0 11 11" fill="green" xmlns="http://www.w3.org/2000/svg">
<path d="M11 1C11 0.447716 10.5523 3.00139e-07 10 7.21607e-07L1 5.10873e-07C0.447715 5.10873e-07 -3.8724e-07 0.447716 -3.8724e-07 1C-3.8724e-07 1.55229 0.447715 2 1 2L9 2L9 10C9 10.5523 9.44771 11 10 11C10.5523 11 11 10.5523 11 10L11 1ZM1.70711 10.7071L6.20711 6.20711L4.79289 4.79289L0.292893 9.29289L1.70711 10.7071ZM6.20711 6.20711L10.7071 1.70711L9.29289 0.292894L4.79289 4.79289L6.20711 6.20711Z" fill="white"/>
</svg>
