<svg width="36" height="36" viewBox="0 0 36 36" fill="none" xmlns="http://www.w3.org/2000/svg">
<path fill-rule="evenodd" clip-rule="evenodd" d="M24.343 12.6893C24.343 11.204 23.139 10 21.6537 10V10C20.1685 10 18.9644 11.204 18.9644 12.6893V23.4464C18.9644 24.9317 20.1685 26.1357 21.6537 26.1357V26.1357C23.139 26.1357 24.343 24.9317 24.343 23.4464V12.6893ZM16.3786 12.6893C16.3786 11.204 15.1745 10 13.6893 10V10C12.204 10 11 11.204 11 12.6893V23.4464C11 24.9317 12.204 26.1357 13.6893 26.1357V26.1357C15.1745 26.1357 16.3786 24.9317 16.3786 23.4464V12.6893Z" fill="white"/>
</svg>
